<svg width="19" height="16" viewBox="0 0 19 16" fill="none" xmlns="http://www.w3.org/2000/svg">
<path d="M0.75 1.75C0.75 1.19772 1.19772 0.75 1.75 0.75H16.75C17.3023 0.75 17.75 1.19772 17.75 1.75V11.5682C17.75 12.1205 17.3023 12.5682 16.75 12.5682H12.236C11.9292 12.5682 11.6393 12.7091 11.4497 12.9504L10.0363 14.7492C9.63594 15.2588 8.86406 15.2588 8.46368 14.7492L7.05028 12.9504C6.8607 12.7091 6.57083 12.5682 6.26396 12.5682H1.75C1.19772 12.5682 0.75 12.1205 0.75 11.5682V1.75Z" stroke="#374151" stroke-width="1.5" stroke-linejoin="round"/>
<path d="M5.75 9.75L6.58916 7.59615M11.75 9.75L10.6591 7.59615M6.58916 7.59615L8.30423 3.19414C8.3686 3.02894 8.60017 3.02297 8.67296 3.18464L10.6591 7.59615M6.58916 7.59615H10.6591" stroke="#374151" stroke-width="1.5" stroke-linecap="round" stroke-linejoin="round"/>
</svg>
