<svg width="18" height="18" viewBox="0 0 18 18" fill="none" xmlns="http://www.w3.org/2000/svg">
<path d="M8.65627 16.5625H1.40885C1.23412 16.5625 1.06653 16.4931 0.942974 16.3695C0.819415 16.246 0.75 16.0784 0.75 15.9036V8.65623C0.75 7.61797 0.954501 6.58988 1.35183 5.63065C1.74915 4.67142 2.33152 3.79984 3.06568 3.06568C3.79984 2.33152 4.67142 1.74915 5.63065 1.35183C6.58988 0.954501 7.61797 0.75 8.65623 0.75H8.65625C9.69451 0.75 10.7226 0.954501 11.6818 1.35183C12.6411 1.74915 13.5126 2.33152 14.2468 3.06569C14.981 3.79985 15.5633 4.67143 15.9607 5.63066C16.358 6.58989 16.5625 7.61799 16.5625 8.65625V8.65627C16.5625 10.7531 15.7295 12.7641 14.2468 14.2468C12.7641 15.7295 10.7531 16.5625 8.65627 16.5625Z" stroke="#374151" stroke-width="1.5" stroke-linecap="round" stroke-linejoin="round"/>
</svg>
