<svg width="18" height="18" viewBox="0 0 18 18" fill="none" xmlns="http://www.w3.org/2000/svg">
<path d="M7.2811 1.6549C7.97264 0.448332 9.71291 0.448332 10.4045 1.6549L11.7497 4.002C11.9953 4.43049 12.4061 4.73925 12.886 4.85595L15.559 5.50597C16.8505 5.82004 17.3679 7.3775 16.521 8.40191L14.6356 10.6824C14.3363 11.0445 14.1904 11.5093 14.2291 11.9776L14.4704 14.8972C14.583 16.2602 13.1945 17.246 11.9449 16.6901L9.57436 15.6356C9.10864 15.4284 8.57691 15.4284 8.11119 15.6356L5.74064 16.6901C4.49106 17.246 3.10251 16.2602 3.21517 14.8972L3.45649 11.9776C3.49519 11.5093 3.34927 11.0445 3.0499 10.6824L1.16458 8.40191C0.31767 7.3775 0.835021 5.82004 2.12654 5.50597L4.7995 4.85595C5.2794 4.73925 5.69026 4.43049 5.93585 4.002L7.2811 1.6549Z" stroke="#374151" stroke-width="1.5" stroke-linejoin="round"/>
</svg>
