<svg width="38" height="38" viewBox="0 0 38 38" fill="none" xmlns="http://www.w3.org/2000/svg">
<circle cx="19" cy="19" r="18.5" fill="white" stroke="#374151"/>
<g clip-path="url(#clip0_47_30)">
<path d="M17.9991 15.2326C17.9988 15.2213 17.9984 15.21 17.9974 15.1987C17.9964 15.1873 17.995 15.176 17.9935 15.1648C17.9927 15.159 17.9924 15.1532 17.9915 15.1474L17.3665 11.3974C17.353 11.3164 17.3238 11.2388 17.2803 11.1691C17.2369 11.0995 17.1802 11.039 17.1134 10.9913C17.0466 10.9435 16.971 10.9094 16.891 10.8909C16.811 10.8724 16.7282 10.8698 16.6472 10.8833C16.5662 10.8968 16.4886 10.9261 16.419 10.9696C16.3493 11.0131 16.2889 11.0698 16.2412 11.1367C16.1935 11.2035 16.1595 11.2791 16.141 11.3591C16.1225 11.4391 16.12 11.5219 16.1335 11.6029L16.6372 14.6252H15.1875V11.5002C15.1875 11.3344 15.1217 11.1754 15.0044 11.0582C14.8872 10.941 14.7283 10.8752 14.5625 10.8752C14.3967 10.8752 14.2378 10.941 14.1206 11.0582C14.0033 11.1754 13.9375 11.3344 13.9375 11.5002V14.6252H12.4878L12.9915 11.6029C13.005 11.5219 13.0025 11.4391 12.984 11.3591C12.9655 11.2791 12.9315 11.2035 12.8838 11.1367C12.8361 11.0698 12.7757 11.0131 12.706 10.9696C12.6364 10.9261 12.5588 10.8968 12.4778 10.8833C12.3968 10.8698 12.314 10.8724 12.234 10.8909C12.154 10.9094 12.0784 10.9435 12.0116 10.9913C11.9448 11.039 11.8881 11.0995 11.8447 11.1691C11.8012 11.2388 11.772 11.3164 11.7585 11.3974L11.1335 15.1474C11.1326 15.1532 11.1323 15.159 11.1315 15.1648C11.13 15.176 11.1285 15.1873 11.1276 15.1987C11.1266 15.21 11.1262 15.2213 11.1259 15.2326C11.1257 15.2385 11.125 15.2442 11.125 15.2502C11.125 15.2557 11.1254 15.2612 11.1254 15.2667C11.1255 15.2706 11.1255 15.2744 11.1257 15.2782C11.1333 16.0762 11.4178 16.8467 11.9307 17.4581C12.4436 18.0694 13.153 18.4835 13.9375 18.6297V26.5002C13.9375 26.6659 14.0033 26.8249 14.1206 26.9421C14.2378 27.0593 14.3967 27.1252 14.5625 27.1252C14.7283 27.1252 14.8872 27.0593 15.0044 26.9421C15.1217 26.8249 15.1875 26.6659 15.1875 26.5002V18.6297C15.972 18.4835 16.6814 18.0694 17.1943 17.4581C17.7072 16.8467 17.9917 16.0762 17.9993 15.2782C17.9995 15.2744 17.9995 15.2706 17.9996 15.2667C17.9996 15.2612 18 15.2557 18 15.2502C18 15.2442 17.9993 15.2385 17.9991 15.2326Z" fill="#1F2937"/>
<path d="M24.5619 11.4889C24.5617 11.476 24.561 11.4631 24.56 11.4502C24.5593 11.4414 24.5585 11.4327 24.5574 11.4241C24.5561 11.4133 24.5544 11.4025 24.5525 11.3917C24.5506 11.3808 24.5485 11.3701 24.546 11.3594C24.544 11.351 24.5418 11.3425 24.5395 11.3341C24.536 11.3215 24.5323 11.3092 24.5281 11.297C24.5269 11.2935 24.5261 11.2899 24.5249 11.2864C24.5234 11.2826 24.5217 11.2791 24.5202 11.2754C24.5155 11.2631 24.5104 11.2511 24.5049 11.2393C24.5014 11.2316 24.4978 11.224 24.494 11.2165C24.4888 11.2064 24.4834 11.1965 24.4777 11.1868C24.4727 11.178 24.4675 11.1695 24.4621 11.161C24.457 11.1531 24.4516 11.1454 24.4461 11.1377C24.4395 11.1284 24.4328 11.1193 24.4257 11.1104C24.4205 11.1039 24.4151 11.0976 24.4097 11.0913C24.4018 11.0823 24.3939 11.0734 24.3856 11.0649C24.3798 11.0589 24.3738 11.0532 24.3678 11.0475C24.3595 11.0396 24.3511 11.0318 24.3423 11.0243C24.3353 11.0184 24.328 11.0127 24.3207 11.007C24.3126 11.0007 24.3044 10.9944 24.2959 10.9884C24.2872 10.9824 24.2783 10.9767 24.2694 10.9711C24.2618 10.9663 24.2542 10.9615 24.2463 10.9571C24.2362 10.9513 24.2258 10.946 24.2152 10.9407C24.208 10.9371 24.2008 10.9336 24.1935 10.9302C24.1824 10.9253 24.1712 10.9208 24.1598 10.9164C24.1522 10.9136 24.1447 10.9107 24.137 10.9081C24.1261 10.9044 24.115 10.9012 24.1038 10.8981C24.0949 10.8956 24.086 10.8933 24.077 10.8912C24.0671 10.8889 24.057 10.887 24.047 10.8852C24.036 10.8832 24.025 10.8815 24.0139 10.8801C24.0054 10.8791 23.9969 10.8783 23.9882 10.8776C23.9755 10.8765 23.9626 10.8759 23.9497 10.8756C23.9456 10.8755 23.9416 10.875 23.9375 10.875C23.9337 10.875 23.93 10.8755 23.9263 10.8756C23.9134 10.8758 23.9006 10.8765 23.8878 10.8775C23.879 10.8782 23.8702 10.879 23.8615 10.8801C23.8507 10.8814 23.84 10.8831 23.8292 10.885C23.8183 10.8869 23.8075 10.889 23.7969 10.8915C23.7884 10.8934 23.78 10.8956 23.7716 10.898C23.759 10.9014 23.7467 10.9052 23.7345 10.9094C23.7309 10.9106 23.7274 10.9114 23.7239 10.9126C23.7162 10.9154 23.7086 10.9188 23.7009 10.9217C23.698 10.9228 23.695 10.9239 23.6921 10.9251C22.082 11.5302 20.7926 13.5055 19.8596 16.7984C19.4363 18.3179 19.1293 19.8673 18.9411 21.4334C18.9317 21.5206 18.9408 21.6088 18.9678 21.6922C18.9948 21.7756 19.039 21.8525 19.0976 21.9177C19.1562 21.9829 19.2279 22.0351 19.308 22.0708C19.3881 22.1065 19.4748 22.125 19.5625 22.125H23.3125V26.5C23.3125 26.6658 23.3783 26.8247 23.4955 26.9419C23.6127 27.0592 23.7717 27.125 23.9375 27.125C24.1032 27.125 24.2622 27.0592 24.3794 26.9419C24.4966 26.8247 24.5625 26.6658 24.5625 26.5V11.5C24.5625 11.4963 24.562 11.4927 24.5619 11.4889Z" fill="#1F2937"/>
</g>
<defs>
<clipPath id="clip0_47_30">
<rect width="20" height="20" fill="white" transform="translate(8 9)"/>
</clipPath>
</defs>
</svg>
